<?xml version="1.0" encoding="utf-8"?>
<svg xmlns="http://www.w3.org/2000/svg" xmlns:xlink="http://www.w3.org/1999/xlink" version= "1.1" width="2000px" height="2000px" viewBox="-640 -272 2000 2000">
<g id="layer1" opacity="0.0">
<g style="fill:yellow; fill-opacity:1.0; stroke-linejoin: miter">
<path d="M-1181.8779,-933.217L207.34583,-947.75055L1596.5696,-962.2842Q1615.9421,889.4132,1635.3147,2741.1106Q246.09094,2755.645,-1143.1329,2770.1797Q-1162.5054,918.48145,-1181.8779,-933.217"/>
</g>
</g>
<g id="layer2" opacity="0.0">
<g style="fill:yellow; fill-opacity:1.0; stroke-linejoin: miter">
<path d="M617.07733,516.63635L617.07733,516.63635L617.07733,516.6373C617.07733,529.9609,613.75037,543.07355,607.3984,554.78546L607.3984,554.78546L431.4062,879.2815C410.33755,918.12805,361.7667,932.53986,322.92017,911.47125C284.07364,890.40265,269.66177,841.8318,290.7304,802.9852L290.7304,802.9852L466.7226,478.4892L457.04364,516.6373L457.04364,516.63635C457.04364,472.44427,492.8684,436.6195,537.0605,436.6195C581.25256,436.6195,617.07733,472.44427,617.07733,516.63635 Z"/>
</g>
<g style="fill:yellow; fill-opacity:1.0; stroke-linejoin: miter">
<path d="M899.9016,892.7475L899.9016,892.7475L899.9016,892.7485C899.9016,936.94055,864.07684,972.7653,819.88477,972.7653C775.6927,972.7653,739.8679,936.94055,739.8679,892.7485L739.8679,892.7485L739.8679,892.7475C739.8679,848.5554,775.6927,812.73065,819.88477,812.73065C864.07684,812.73065,899.9016,848.5554,899.9016,892.7475 Z"/>
</g>
<g style="fill:yellow; fill-opacity:1.0; stroke-linejoin: miter">
<path d="M816.9225,623.1134L816.9225,623.1134L816.9225,623.1144C816.9225,636.4379,813.5956,649.5506,807.2435,661.2625L807.2435,661.2625L631.25134,985.7585C610.18274,1024.605,561.6119,1039.0168,522.7653,1017.94824C483.9188,996.87964,469.50693,948.3088,490.57556,909.4622L490.57556,909.4622L666.56775,584.96625L656.8888,623.1144L656.8888,623.1134C656.8888,578.9213,692.71356,543.09656,736.90564,543.09656C781.0977,543.09656,816.9225,578.9213,816.9225,623.1134 Z"/>
</g>
<g style="fill:yellow; fill-opacity:1.0; stroke-linejoin: miter">
<path d="M349.97327,592.22L349.97327,592.22L349.97327,592.22095C349.97327,636.413,314.1485,672.2378,269.95642,672.2378C225.76433,672.2378,189.93958,636.413,189.93958,592.22095L189.93958,592.22095L189.93958,592.22C189.93958,548.0279,225.76433,512.2031,269.95642,512.2031C314.1485,512.2031,349.97327,548.0279,349.97327,592.22 Z"/>
</g>
</g>
<g id="layer3">
<g style="fill:yellow; fill-opacity:1.0; stroke-linejoin: miter">
<path d="M-1056.3931,1494.263L-1056.3931,1494.263Q-1064.0835,1496.9692,-1073.39,1500.8368L-1073.0399,1500.6898L-1134.5626,1526.807L-1134.5575,1526.8047Q-1143.0559,1530.4136,-1151.9226,1537.2968C-1173.7356,1554.2302,-1205.1458,1550.2747,-1222.0792,1528.4617C-1239.0127,1506.6487,-1235.0571,1475.2385,-1213.2441,1458.305L-1213.2441,1458.305Q-1194.1091,1443.4504,-1173.6439,1434.76L-1173.6388,1434.7577L-1112.1161,1408.6405C-1111.9991,1408.5908,-1111.8833,1408.5422,-1111.766,1408.4935L-1111.766,1408.4935Q-1099.896,1403.5605,-1089.5876,1399.9331C-1063.5392,1390.7667,-1034.9918,1404.4523,-1025.8254,1430.5007C-1016.659,1456.5492,-1030.3446,1485.0966,-1056.3931,1494.263 Z"/>
</g>
<g style="fill:yellow; fill-opacity:1.0; stroke-linejoin: miter">
<path d="M1035.6748,853.13306L1035.6748,853.13306L703.0497,1331.4159C646.9392,1412.0973,536.0475,1432.016,455.36603,1375.9055C374.6846,1319.795,354.76587,1208.9032,410.87634,1128.2218L410.87634,1128.2218L743.50146,649.9391C799.61194,569.2576,910.50366,549.3389,991.1851,605.4494C1071.8666,661.5599,1091.7853,772.4516,1035.6748,853.13306 Z"/>
</g>
<g style="fill:yellow; fill-opacity:1.0; stroke-linejoin: miter">
<path d="M190.15942,1203.6385L190.15942,1203.6385L190.15942,1203.6395C190.15942,1301.9141,110.492226,1381.5812,12.2177515,1381.5812C-86.056725,1381.5812,-165.7239,1301.9141,-165.7239,1203.6395L-165.7239,1203.6395L-165.7239,1203.6385C-165.7239,1105.364,-86.056725,1025.6969,12.2177515,1025.6969C110.492226,1025.6969,190.15942,1105.364,190.15942,1203.6385 Z"/>
</g>
<g style="fill:yellow; fill-opacity:1.0; stroke-linejoin: miter">
<path d="M-668.5681,700.6672L-668.5681,700.6672L-668.5681,700.66815C-668.5681,728.2824,-690.95386,750.66815,-718.5681,750.66815C-746.1824,750.66815,-768.5681,728.2824,-768.5681,700.66815L-768.5681,700.66815L-768.5681,700.6672C-768.5681,673.0529,-746.1824,650.6672,-718.5681,650.6672C-690.95386,650.6672,-668.5681,673.0529,-668.5681,700.6672 Z"/>
</g>
<g style="fill:yellow; fill-opacity:1.0; stroke-linejoin: miter">
<path d="M781.6388,410.25153L781.6388,410.25153L449.0141,888.5354C392.90378,969.2169,282.01205,989.1358,201.33054,933.02545C120.64902,876.9151,100.73013,766.02344,156.84047,685.3419L156.84047,685.3419L489.4652,207.05804C545.57556,126.376526,656.4672,106.45764,737.14874,162.56798C817.83026,218.67831,837.74915,329.57,781.6388,410.25153 Z"/>
</g>
<g style="fill:yellow; fill-opacity:1.0; stroke-linejoin: miter">
<path d="M281.55646,320.109L281.55646,320.109L-51.06685,798.3925C-107.177055,879.07416,-218.06876,898.9932,-298.75037,842.883C-379.43198,786.77277,-399.35104,675.88116,-343.24084,595.1995L-343.24084,595.1995L-10.617523,116.916C45.492683,36.234383,156.38437,16.315315,237.06598,72.42552C317.7476,128.53574,337.66666,239.4274,281.55646,320.109 Z"/>
</g>
<g style="fill:yellow; fill-opacity:1.0; stroke-linejoin: miter">
<path d="M458.592,701.07184L458.592,701.07184L711.12305,1141.4799C760.0077,1226.7335,730.5247,1335.4742,645.27106,1384.3589C560.0174,1433.2435,451.2768,1403.7606,402.39212,1318.507L402.39212,1318.507L149.86111,878.0988C100.976456,792.84515,130.45938,684.1045,215.71306,635.21985C300.96674,586.3352,409.70734,615.8182,458.592,701.07184 Z"/>
</g>
<g style="fill:yellow; fill-opacity:1.0; stroke-linejoin: miter">
<path d="M-464.557,-1354.6589L-464.557,-1354.6589L-464.557,-1354.658C-464.557,-1350.0417,-468.29913,-1346.2997,-472.9153,-1346.2997C-477.5315,-1346.2997,-481.27362,-1350.0417,-481.27362,-1354.658L-481.27362,-1354.658L-481.27362,-1354.6589C-481.27362,-1359.2751,-477.5315,-1363.0172,-472.9153,-1363.0172C-468.29913,-1363.0172,-464.557,-1359.2751,-464.557,-1354.6589 Z"/>
</g>
</g>
</svg>